<svg width="342" height="248" viewBox="0 0 342 248" fill="none" xmlns="http://www.w3.org/2000/svg">
<rect width="342" height="248" fill="#FF6464"/>
<path d="M77.1875 122.625V114.562L118.344 77.1562V91.0312L87.875 118.594L118.344 146.156V160.125L77.1875 122.625ZM165.406 134.625C165.406 141.875 163.156 147.25 158.656 150.75C154.156 154.25 148.094 156 140.469 156C137.594 156 134.594 155.656 131.469 154.969C128.406 154.281 125.625 153.5 123.125 152.625V140.344C126.812 141.844 129.875 142.969 132.312 143.719C133.688 144.094 135.156 144.438 136.719 144.75C138.281 145.062 139.781 145.219 141.219 145.219C142.781 145.219 144.219 145.094 145.531 144.844C146.906 144.594 148.125 144.031 149.188 143.156C150.188 142.531 151.094 141.625 151.906 140.438C152.719 139.25 153.125 137.75 153.125 135.938C153.125 134.125 152.75 132.625 152 131.438C151.25 130.188 150.406 129.125 149.469 128.25C147.219 126.312 144.781 124.656 142.156 123.281C140.344 122.281 138.312 121.156 136.062 119.906C133.812 118.594 131.688 117.125 129.688 115.5C127.562 113.812 125.844 111.812 124.531 109.5C123.219 107.188 122.562 104.594 122.562 101.719C122.562 95.0312 124.594 90.0938 128.656 86.9062C132.719 83.7188 137.969 82.125 144.406 82.125C146.031 82.125 147.656 82.2812 149.281 82.5938C150.906 82.8438 152.375 83.125 153.688 83.4375C156.062 84.125 158.656 84.9375 161.469 85.875V97.6875C158.094 95.9375 154.938 94.6562 152 93.8438C149.125 93.0312 146.438 92.625 143.938 92.625C141.312 92.625 139.094 93.375 137.281 94.875C135.531 96.3125 134.656 98.375 134.656 101.062C134.656 102.125 134.938 103.062 135.5 103.875C136.062 104.688 136.75 105.5 137.562 106.312C138.375 107.25 139.312 108.094 140.375 108.844C141.5 109.594 142.75 110.312 144.125 111C148.5 113.375 151.812 115.312 154.062 116.812C156.375 118.25 158.281 119.688 159.781 121.125C161.469 122.688 162.781 124.531 163.719 126.656C164.719 128.781 165.281 131.438 165.406 134.625ZM198.781 75.1875L177.594 168.281H166.531L187.625 75.1875H198.781ZM243.312 122.625L202.156 160.125V146.156L232.531 118.594L202.156 91.0312V77.1562L243.312 114.562V122.625Z" fill="white"/>
</svg>
