<svg width="232" height="62" viewBox="0 0 232 62" fill="none" xmlns="http://www.w3.org/2000/svg">
<path d="M0.752 36.872C0.752 36.232 0.986667 35.5707 1.456 34.888C1.968 34.2053 2.544 33.864 3.184 33.864C3.39733 33.864 3.54667 33.9067 3.632 33.992C5.12533 35.5707 7.36533 37.0213 10.352 38.344C13.3813 39.624 16.2187 40.264 18.864 40.264C26.5013 40.264 30.32 37.7253 30.32 32.648C30.32 30.9413 29.7867 29.5547 28.72 28.488C27.696 27.3787 26.3307 26.5467 24.624 25.992C22.96 25.4373 21.104 24.968 19.056 24.584C17.0507 24.2 15.024 23.752 12.976 23.24C10.928 22.6853 9.05067 22.0027 7.344 21.192C5.68 20.3813 4.31467 19.144 3.248 17.48C2.224 15.816 1.712 13.7893 1.712 11.4C1.712 7.816 3.29067 5.064 6.448 3.144C9.60533 1.18133 13.3813 0.199997 17.776 0.199997C21.1893 0.199997 24.3893 0.775997 27.376 1.928C30.4053 3.03733 32.624 4.616 34.032 6.664C34.0747 6.74933 34.096 6.856 34.096 6.984C34.096 7.496 33.7333 8.02933 33.008 8.584C32.3253 9.096 31.7067 9.352 31.152 9.352C31.0667 9.352 30.8107 9.24533 30.384 9.032C27.0133 6.25866 22.832 4.872 17.84 4.872C14.8107 4.872 12.144 5.448 9.84 6.6C7.536 7.70933 6.384 9.416 6.384 11.72C6.384 13.2987 6.896 14.6 7.92 15.624C8.98667 16.648 10.352 17.416 12.016 17.928C13.7227 18.3973 15.6 18.824 17.648 19.208C19.696 19.5493 21.744 19.9973 23.792 20.552C25.84 21.1067 27.696 21.832 29.36 22.728C31.0667 23.5813 32.432 24.8827 33.456 26.632C34.5227 28.3813 35.056 30.5147 35.056 33.032C35.056 40.968 29.808 44.936 19.312 44.936C15.8987 44.936 12.5493 44.3387 9.264 43.144C5.97867 41.9067 3.29067 40.2213 1.2 38.088C0.901333 37.7893 0.752 37.384 0.752 36.872Z" fill="#FFE600"/>
<path d="M40.432 33.352C40.432 27.6347 42.672 22.7067 47.152 18.568C51.632 14.4293 56.7093 12.36 62.384 12.36C66.2667 12.36 69.5733 13.832 72.304 16.776C75.0347 19.72 76.4 23.0693 76.4 26.824L76.336 43.592C76.336 44.1467 76.0587 44.5947 75.504 44.936C74.992 45.2347 74.416 45.384 73.776 45.384C72.368 45.384 71.664 44.7867 71.664 43.592V32.776C68.208 37.256 64.9013 40.4987 61.744 42.504C58.6293 44.5093 55.408 45.512 52.08 45.512C49.008 45.512 46.2987 44.2747 43.952 41.8C41.6053 39.2827 40.432 36.4667 40.432 33.352ZM45.04 33.48C45.04 35.912 45.8933 37.768 47.6 39.048C49.3067 40.2853 51.12 40.904 53.04 40.904C55.2587 40.904 57.7973 39.816 60.656 37.64C63.5147 35.4213 65.8827 32.968 67.76 30.28C69.68 27.5493 70.64 25.416 70.64 23.88C70.64 22.6 70.256 21.4693 69.488 20.488C68.7627 19.464 67.8453 18.7173 66.736 18.248C65.6693 17.7787 64.688 17.4373 63.792 17.224C62.896 16.968 62.1493 16.84 61.552 16.84C57.3707 16.84 53.5733 18.5253 50.16 21.896C46.7467 25.224 45.04 29.0853 45.04 33.48ZM83.526 43.208V14.856C83.526 13.704 84.3367 13.128 85.958 13.128C86.598 13.128 87.1313 13.2773 87.558 13.576C88.0273 13.8747 88.262 14.3013 88.262 14.856V22.856C89.8833 19.3573 91.6753 16.712 93.638 14.92C95.6433 13.128 98.2887 12.232 101.574 12.232C103.878 12.232 106.203 12.5307 108.55 13.128C109.787 13.7253 110.406 14.536 110.406 15.56C110.406 16.2853 110.257 16.7973 109.958 17.096C109.659 17.3947 109.169 17.5867 108.486 17.672C106.31 17.16 104.539 16.904 103.174 16.904C100.017 16.904 97.1367 18.4613 94.534 21.576C91.9313 24.6907 89.8407 28.744 88.262 33.736V43.208C88.262 43.7627 88.0273 44.2107 87.558 44.552C87.0887 44.8507 86.534 45 85.894 45C84.3153 45 83.526 44.4027 83.526 43.208ZM111.12 33.352C111.12 27.6347 113.36 22.7067 117.84 18.568C122.32 14.4293 127.397 12.36 133.072 12.36C136.954 12.36 140.261 13.832 142.992 16.776C145.722 19.72 147.088 23.0693 147.088 26.824L147.024 43.592C147.024 44.1467 146.746 44.5947 146.192 44.936C145.68 45.2347 145.104 45.384 144.464 45.384C143.056 45.384 142.352 44.7867 142.352 43.592V32.776C138.896 37.256 135.589 40.4987 132.432 42.504C129.317 44.5093 126.096 45.512 122.768 45.512C119.696 45.512 116.986 44.2747 114.64 41.8C112.293 39.2827 111.12 36.4667 111.12 33.352ZM115.728 33.48C115.728 35.912 116.581 37.768 118.288 39.048C119.994 40.2853 121.808 40.904 123.728 40.904C125.946 40.904 128.485 39.816 131.344 37.64C134.202 35.4213 136.57 32.968 138.448 30.28C140.368 27.5493 141.328 25.416 141.328 23.88C141.328 22.6 140.944 21.4693 140.176 20.488C139.45 19.464 138.533 18.7173 137.424 18.248C136.357 17.7787 135.376 17.4373 134.48 17.224C133.584 16.968 132.837 16.84 132.24 16.84C128.058 16.84 124.261 18.5253 120.848 21.896C117.434 25.224 115.728 29.0853 115.728 33.48ZM154.278 43.336V14.728C154.278 14.1733 154.491 13.7467 154.918 13.448C155.387 13.1493 155.942 13 156.582 13C158.203 13 159.014 13.576 159.014 14.728V19.784C161.147 17.48 163.728 15.6667 166.758 14.344C169.787 12.9787 172.859 12.296 175.974 12.296C179.984 12.296 183.334 13.5547 186.022 16.072C188.752 18.5467 190.118 21.7893 190.118 25.8C190.118 26.184 190.096 28.1467 190.054 31.688C190.054 35.1867 190.054 39.0267 190.054 43.208C190.054 43.7627 189.819 44.2107 189.35 44.552C188.88 44.8507 188.326 45 187.686 45C186.107 45 185.318 44.4027 185.318 43.208V26.376C185.318 23.3467 184.23 21.0213 182.054 19.4C179.92 17.7787 177.702 16.968 175.398 16.968C172.283 16.968 169.083 18.0133 165.798 20.104C162.555 22.152 160.294 24.7547 159.014 27.912V43.336C159.014 44.488 158.203 45.064 156.582 45.064C155.942 45.064 155.387 44.9147 154.918 44.616C154.491 44.3173 154.278 43.8907 154.278 43.336ZM195.932 33.352C195.932 27.6347 198.172 22.7067 202.652 18.568C207.132 14.4293 212.209 12.36 217.884 12.36C221.425 12.36 224.519 13.6187 227.164 16.136V14.664C227.164 13.512 227.975 12.936 229.596 12.936C230.236 12.936 230.769 13.0853 231.196 13.384C231.665 13.6827 231.9 14.1093 231.9 14.664V45.32C231.9 50.312 230.279 54.216 227.036 57.032C223.793 59.8907 220.017 61.32 215.708 61.32C212.295 61.32 209.436 60.7227 207.132 59.528C204.828 58.3333 203.655 56.3493 203.612 53.576C203.612 52.8933 203.825 52.36 204.252 51.976C204.679 51.6347 205.212 51.464 205.852 51.464C206.535 51.464 207.111 51.656 207.58 52.04C208.092 52.424 208.348 52.9147 208.348 53.512C208.348 54.2373 208.54 54.8133 208.924 55.24C209.351 55.7093 210.012 56.0293 210.908 56.2C211.804 56.3707 212.572 56.4773 213.212 56.52C213.895 56.5627 214.833 56.584 216.028 56.584C219.057 56.584 221.66 55.6667 223.836 53.832C226.055 51.9973 227.164 49.3093 227.164 45.768V32.776C223.708 37.256 220.401 40.4987 217.244 42.504C214.129 44.5093 210.908 45.512 207.58 45.512C204.508 45.512 201.799 44.2747 199.452 41.8C197.105 39.2827 195.932 36.4667 195.932 33.352ZM200.54 33.48C200.54 35.912 201.393 37.768 203.1 39.048C204.807 40.2853 206.62 40.904 208.54 40.904C210.759 40.904 213.297 39.816 216.156 37.64C219.015 35.4213 221.383 32.968 223.26 30.28C225.18 27.5493 226.14 25.416 226.14 23.88C226.14 22.6 225.756 21.4693 224.988 20.488C224.263 19.464 223.345 18.7173 222.236 18.248C221.169 17.7787 220.188 17.4373 219.292 17.224C218.396 16.968 217.649 16.84 217.052 16.84C212.871 16.84 209.073 18.5253 205.66 21.896C202.247 25.224 200.54 29.0853 200.54 33.48Z" fill="white"/>
</svg>
